# xmcd CD database file
#
# Track frame offsets:
#	182
#	19585
#	58160
#	82952
#	147822
#	180882
#	191380
#	223597
#
# Disc length: 3277 seconds
#
# Revision: 0
# Processed by: cddbd v1.5.1PL0 Copyright (c) Steve Scherf et al.
# Submitted via: CDex 1.51
#
DISCID=600ccb08
DTITLE=Jørgen Emborg - Keyword
DYEAR=1988
DGENRE=Jazz
TTITLE0=Don't Get Me Wrong
TTITLE1=Hidden Somewhere
TTITLE2=Song For Toots
TTITLE3=Keyword
TTITLE4=Uranus
TTITLE5=Titan's Orbit
TTITLE6=1181
TTITLE7=Song From Yesterday
EXTD=YEAR: 1988
EXTT0=
EXTT1=
EXTT2=
EXTT3=
EXTT4=
EXTT5=
EXTT6=
EXTT7=
PLAYORDER=
